<svg viewBox="0 0 17 16" fill="none" xmlns="http://www.w3.org/2000/svg">
  <path d="m5.08 5.35.67.442-.67-.442Zm.408 5.097v-.66h-1.6v.66h1.6Zm0-.66V8.263h-1.6v1.526h1.6Zm2.4-5.223 2.187-.963-.64-1.48-2.187.963.64 1.48Zm-4 5.883c0 .683-.001 1.253.042 1.704.043.452.14.908.42 1.296l1.292-.953c-.027-.037-.086-.145-.12-.498-.033-.356-.034-.834-.034-1.549h-1.6Zm4.146 1.683c-.65.285-1.085.476-1.42.586-.335.11-.456.1-.5.09l-.35 1.574c.465.105.917.012 1.345-.129.428-.14.945-.37 1.565-.643l-.64-1.478ZM4.35 13.447c.344.474.846.806 1.415.933l.348-1.575a.8.8 0 0 1-.472-.311l-1.29.953Zm9.138-8.649c0-.33 0-.605-.01-.827a2.624 2.624 0 0 0-.102-.667l-1.526.488c.007.018.02.08.03.255.008.175.008.406.008.751h1.6ZM10.075 3.6c.314-.137.523-.23.686-.292.078-.034.16-.06.243-.076l-.168-1.605c-.226.024-.44.094-.646.173-.206.08-.456.19-.755.321l.64 1.48Zm3.3-.296a2.419 2.419 0 0 0-.973-1.295 2.383 2.383 0 0 0-1.566-.382l.168 1.606a.795.795 0 0 1 .846.559l1.526-.488ZM5.489 8.262c0-.787 0-1.313.044-1.72.041-.387.116-.592.217-.75L4.411 4.91c-.29.447-.412.928-.469 1.46-.055.514-.054 1.14-.054 1.893h1.6Zm1.76-5.178c-.683.3-1.253.55-1.698.807-.46.265-.85.57-1.14 1.017l1.34.884c.1-.156.258-.306.594-.5.352-.203.83-.413 1.544-.728l-.64-1.48Z" fill="#fff"/>
  <path d="m4.688 2.95 1.12-.492-.64-1.48-1.12.493.64 1.479Zm1.12-.492 1.068-.47-.64-1.48-1.068.47.64 1.48Zm-3.52 6.436v-.722h-1.6v.722h1.6Zm0-.722V6.647h-1.6v1.525h1.6Zm-1.6.722c0 .646 0 1.186.038 1.614.04.429.125.862.378 1.238l1.323-.91c-.024-.034-.077-.138-.107-.475-.03-.337-.032-.79-.032-1.467h-1.6Zm4.076 1.622c-.615.275-1.025.459-1.344.567-.316.109-.432.102-.474.095l-.284 1.59c.442.08.869-.018 1.273-.157.403-.137.893-.358 1.478-.62l-.65-1.475Zm-3.66 1.23a2.386 2.386 0 0 0 1.558 1.022l.284-1.588a.796.796 0 0 1-.52-.34l-1.322.905Zm5.772-9.759c.313-.137.523-.23.685-.293.078-.034.16-.06.243-.076L7.637.013a2.61 2.61 0 0 0-.646.173c-.206.08-.456.19-.755.321l.64 1.48Zm3.413 1.197c0-.33 0-.605-.01-.827a2.625 2.625 0 0 0-.102-.667l-1.526.488c.006.018.02.08.03.256.007.174.007.405.007.75h1.6ZM7.804 1.618a.795.795 0 0 1 .847.56l1.526-.488A2.419 2.419 0 0 0 9.203.395 2.384 2.384 0 0 0 7.637.013l.168 1.606Zm-3.756-.147c-.682.3-1.252.55-1.697.806-.46.265-.85.57-1.14 1.017l1.34.884c.1-.156.257-.306.593-.5.352-.203.83-.413 1.544-.728l-.64-1.48Zm-1.76 5.176c0-.787.001-1.312.045-1.719.041-.387.115-.592.217-.75l-1.338-.883c-.29.447-.412.928-.47 1.46-.054.514-.054 1.14-.054 1.892h1.6Zm12.8.94v1.817h1.6V7.586h-1.6Zm-2.4 5.516-.853.375.64 1.48.854-.376-.64-1.48Zm-1.6-6.926 1.12-.492-.64-1.48-1.12.493.64 1.48Zm-2.4 5.224V9.876h-1.6V11.4h1.6Zm3.147 2.077c-.933.41-1.557.684-2.033.82-.466.135-.617.083-.686.047l-.748 1.428c.612.325 1.256.255 1.87.078.606-.174 1.348-.502 2.237-.893l-.64-1.48Zm-4.747-2.077c0 .978-.001 1.794.083 2.423.085.637.28 1.262.82 1.697l.998-1.26c-.061-.05-.168-.169-.233-.654-.066-.494-.068-1.18-.068-2.206h-1.6Zm2.028 2.944a.808.808 0 0 1-.127-.085l-.999 1.261c.118.096.245.18.38.25l.746-1.428v.002Zm5.973-4.94c0 .786-.001 1.312-.045 1.72-.041.386-.115.591-.217.749l1.34.883c.289-.447.411-.928.468-1.46.054-.513.053-1.14.053-1.893h-1.6Zm-1.76 5.177c.682-.3 1.252-.55 1.697-.807.46-.264.85-.571 1.14-1.018l-1.34-.883c-.1.156-.258.306-.593.5-.353.203-.83.414-1.545.729l.64 1.48Zm3.36-6.996c0-.846.001-1.552-.064-2.103-.064-.556-.21-1.108-.629-1.534l-1.138 1.133c.044.045.128.162.178.59.05.434.053 1.027.053 1.914h1.6Zm-4.48-1.901c.806-.355 1.345-.592 1.76-.717.408-.126.548-.095.607-.072l.575-1.506c-.554-.216-1.115-.13-1.646.032-.526.161-1.169.445-1.937.783l.64 1.48Zm3.787-1.736a2.396 2.396 0 0 0-.845-.56l-.575 1.507a.797.797 0 0 1 .282.186l1.138-1.133Zm-5.548.749c-.682.301-1.252.55-1.697.807-.46.265-.85.57-1.14 1.017l1.34.884c.1-.156.257-.306.593-.5.352-.203.83-.414 1.544-.729l-.64-1.479Zm-1.76 5.178c0-.787.001-1.313.045-1.72.041-.387.115-.592.217-.75l-1.34-.884c-.289.447-.411.929-.468 1.461-.054.514-.054 1.14-.054 1.893h1.6Z" fill="#fff"/>
  <path fill-rule="evenodd" clip-rule="evenodd" d="M9.116 14.345Z" fill="#fff"/>
  <path d="M15.088 9.404V7.586c0-.887-.001-1.48-.051-1.913-.05-.43-.135-.546-.179-.59a.797.797 0 0 0-.282-.187c-.059-.023-.199-.054-.607.072-.415.125-.954.362-1.76.717l-1.12.492c-.715.315-1.193.526-1.545.729-.336.194-.492.344-.594.5-.102.158-.176.363-.217.75-.044.407-.045.933-.045 1.72V11.4c0 1.026.002 1.712.068 2.206.065.485.172.605.233.653.04.032.082.061.127.085.07.036.22.088.686-.046.476-.137 1.1-.41 2.033-.82l.853-.376c.715-.315 1.192-.526 1.545-.729.335-.194.492-.344.594-.5.102-.158.176-.363.217-.75.044-.407.044-.933.044-1.72Z" fill="#fff"/>
</svg>
