<svg viewBox="0 0 17 16" fill="none" xmlns="http://www.w3.org/2000/svg">
  <path d="M11.829 9.6c.064-.528.112-1.056.112-1.6s-.048-1.072-.112-1.6h2.704c.128.512.208 1.048.208 1.6s-.08 1.088-.208 1.6m-4.12 4.448a12.52 12.52 0 0 0 1.104-2.848h2.36a6.424 6.424 0 0 1-3.464 2.848Zm-.2-4.448H6.469A10.615 10.615 0 0 1 6.34 8c0-.544.048-1.08.128-1.6h3.744c.072.52.128 1.056.128 1.6s-.056 1.072-.128 1.6ZM8.34 14.368A10.85 10.85 0 0 1 6.813 11.2h3.056a10.85 10.85 0 0 1-1.528 3.168ZM5.14 4.8H2.805A6.339 6.339 0 0 1 6.26 1.952C5.78 2.84 5.42 3.8 5.14 4.8Zm-2.336 6.4H5.14c.28 1 .64 1.96 1.12 2.848A6.406 6.406 0 0 1 2.805 11.2Zm-.656-1.6A6.594 6.594 0 0 1 1.94 8c0-.552.08-1.088.208-1.6h2.704A13.212 13.212 0 0 0 4.74 8c0 .544.048 1.072.112 1.6M8.34 1.624c.664.96 1.2 2.032 1.528 3.176H6.813A10.895 10.895 0 0 1 8.34 1.624ZM13.877 4.8h-2.36c-.256-1-.624-1.96-1.104-2.848A6.39 6.39 0 0 1 13.877 4.8ZM8.34 0c-4.424 0-8 3.6-8 8a8 8 0 1 0 8-8Z" fill="#fff"/>
</svg>
