<svg viewBox="0 0 16 16" fill="none" xmlns="http://www.w3.org/2000/svg">
  <path d="M2.182 0A1.45 1.45 0 0 0 .727 1.455v2.909a1.45 1.45 0 0 0 1.455 1.454H0v1.455h8.727V5.818H6.545A1.45 1.45 0 0 0 8 4.364v-2.91A1.45 1.45 0 0 0 6.545 0H2.182Zm0 1.455h4.363v2.909H2.182v-2.91Zm-.727 7.272v5.091h5.09v-1.454H2.91V8.727H1.455Zm8 0A1.45 1.45 0 0 0 8 10.182v2.909a1.45 1.45 0 0 0 1.455 1.455H7.273V16H16v-1.454h-2.182a1.45 1.45 0 0 0 1.455-1.455v-2.91a1.45 1.45 0 0 0-1.455-1.454H9.455Zm0 1.455h4.363v2.909H9.455v-2.91Z" fill="#fff"/>
</svg>
